<svg width="116" height="32" viewBox="0 0 116 32" fill="none" xmlns="http://www.w3.org/2000/svg">
<path d="M14.6775 12.187C17.9717 12.0046 21.7051 10.4721 21.7051 6.3854C21.7051 2.04333 18.1181 0.0364875 13.1768 0.0364875H0V25.5416H14.0919C18.2279 25.5416 22.5836 23.7537 22.5836 18.5724C22.5836 13.8654 18.1913 12.3694 14.6775 12.187ZM6.77142 4.96237H11.8591C13.3232 4.96237 14.8239 5.83809 14.8239 7.66249C14.8239 9.63284 13.3598 10.3991 11.9323 10.3991H6.77142V4.96237ZM12.4814 20.3968H6.77142V14.5587H12.4814C14.1285 14.5587 15.4828 15.6169 15.4828 17.4778C15.4828 19.4481 14.1285 20.3968 12.4814 20.3968Z" fill="#09090B"/>
<path d="M31.2638 25.5416V0H24.7852V25.5416H31.2638Z" fill="#09090B"/>
<path d="M40.7189 25.5416V7.07868H34.2403V25.5416H40.7189ZM40.7189 5.1813V1.16762H34.2403V5.1813H40.7189Z" fill="#09090B"/>
<path d="M56.799 6.45838C53.0656 6.45838 50.9426 9.41391 50.174 11.6032V7.11517H43.6954V25.5416H50.174V16.0547C50.2838 12.9532 51.8577 11.0559 53.944 11.0559C55.7375 11.0559 56.799 12.2235 56.799 14.2303V25.5416H63.3142V13.3546C63.3142 9.08552 61.0815 6.45838 56.799 6.45838Z" fill="#09090B"/>
<path d="M78.7901 15.3979L85.4151 7.11517H79.0829L72.6043 15.3979V0.0364875H66.1257V25.5416H72.6043V22.0023L74.8004 19.3387L79.1561 25.5416H86.44L78.7901 15.3979Z" fill="#09090B"/>
<path d="M94.3197 25.5416V0H87.8411V25.5416H94.3197Z" fill="#09090B"/>
<path d="M109.924 7.07868L106.081 19.2657L101.872 7.07868H95.6858L103.555 26.4538V26.4903C103.336 27.1106 103.189 27.5485 102.238 27.5485H98.4309V32H104.397C106.3 32 107.289 30.4675 107.728 29.3364L116 7.07868H109.924Z" fill="#09090B"/>
</svg>
