<svg width="144" height="40" viewBox="0 0 144 40" fill="none" xmlns="http://www.w3.org/2000/svg">
<path d="M18.2204 15.2338C22.3097 15.0057 26.9443 13.0901 26.9443 7.98176C26.9443 2.55416 22.4915 0.0456093 16.3574 0.0456093H0V31.927H17.4934C22.6278 31.927 28.0348 29.6921 28.0348 23.2155C28.0348 17.3318 22.5823 15.4618 18.2204 15.2338ZM8.4059 6.20297H14.7217C16.5392 6.20297 18.4021 7.29761 18.4021 9.57811C18.4021 12.041 16.5846 12.9989 14.8126 12.9989H8.4059V6.20297ZM15.4941 25.496H8.4059V18.1984H15.4941C17.5388 18.1984 19.22 19.5211 19.22 21.8472C19.22 24.3101 17.5388 25.496 15.4941 25.496Z" fill="#06B995"/>
<path d="M38.8102 31.927V0H30.7678V31.927H38.8102Z" fill="#06B995"/>
<path d="M50.5476 31.927V8.84835H42.5052V31.927H50.5476ZM50.5476 6.47663V1.45952H42.5052V6.47663H50.5476Z" fill="#06B995"/>
<path d="M70.5091 8.07298C65.8745 8.07298 63.2391 11.7674 62.2849 14.504V8.89396H54.2425V31.927H62.2849V20.0684C62.4212 16.1916 64.3751 13.8198 66.965 13.8198C69.1914 13.8198 70.5091 15.2794 70.5091 17.7879V31.927H78.5969V16.6933C78.5969 11.3569 75.8252 8.07298 70.5091 8.07298Z" fill="#06B995"/>
<path d="M97.8084 19.2474L106.033 8.89396H98.1719L90.1295 19.2474V0.0456093H82.0871V31.927H90.1295V27.5029L92.8557 24.1733L98.2628 31.927H107.305L97.8084 19.2474Z" fill="#06B995"/>
<path d="M117.087 31.927V0H109.044V31.927H117.087Z" fill="#06B995"/>
<path d="M136.457 8.84835L131.686 24.0821L126.461 8.84835H118.782L128.551 33.0673V33.1129C128.279 33.8883 128.097 34.4356 126.916 34.4356H122.19V40H129.596C131.959 40 133.186 38.0844 133.731 36.6705L144 8.84835H136.457Z" fill="#06B995"/>
</svg>